<svg width="1200" height="329" xmlns="http://www.w3.org/2000/svg" xml:space="preserve" enable-background="new 0 0 1200 1200" version="1.1">
 <g>
  <title>Layer 1</title>
  <g id="svg_30">
   <g stroke-opacity="0" id="svg_28">
    <path stroke="#000000" id="svg_2" d="m999.38368,218.96888c4.23108,12.64247 3.55801,24.90439 -1.523,36.72453c-4.81218,11.19502 -16.78498,20.74943 -30.14278,21.00159c-9.47187,0.1787 -17.75638,-2.21485 -24.90954,-8.42845c-2.67371,6.43681 -4.26597,8.5316 -10.71122,8.34702c-5.06171,-0.14501 -8.48653,-3.61551 -8.48723,-8.83991c-0.00402,-31.18738 -0.00311,-62.3748 0.00047,-93.56218c0.00059,-5.21995 3.41661,-8.7535 8.48787,-8.80673c6.06134,-0.06366 10.2353,3.38514 10.28859,8.77705c0.09401,9.50718 0.02634,19.0159 0.02634,29.45456c9.84264,-8.7738 20.49112,-12.471 32.85138,-8.48805c11.89102,3.83177 19.7111,11.88936 24.11914,23.82058m-54.71901,29.70332c1.46613,1.76464 2.8891,3.56729 4.40547,5.28762c8.33024,9.45123 27.64317,6.97773 32.55582,-7.82741c1.88163,-5.67059 2.16056,-11.2457 1.55067,-17.10774c-1.08957,-10.47179 -13.24986,-20.33947 -22.90349,-18.13175c-13.6594,3.12382 -17.89359,11.48666 -18.47198,23.2921c-0.22759,4.64461 1.54165,9.38714 2.86349,14.48717l0.00001,0l0.00001,0.00001z" fill="#ffffff"/>
    <path stroke="#000000" id="svg_3" d="m464.09684,201.19969c8.02744,6.4087 12.77642,14.58912 14.69168,24.24015c2.56761,12.93846 0.85887,25.21928 -6.70649,36.41718c-11.82539,17.50322 -35.93395,19.64184 -51.0994,6.66454c-0.14122,-0.12087 -0.42993,-0.06935 -0.86452,-0.12661c0,8.85248 0.00255,17.67699 -0.00088,26.50151c-0.00239,6.16156 -4.35686,10.82894 -9.90082,10.62213c-4.86131,-0.18142 -8.88818,-4.9051 -8.88928,-10.47474c-0.00584,-29.72474 -0.00384,-59.44942 -0.00122,-89.17416c0.00049,-5.45103 3.5296,-10.01302 8.27704,-10.72241c4.45452,-0.6656 9.3284,3.14977 10.79566,8.58957c13.81439,-12.07499 28.35804,-12.32059 43.69823,-2.53717m-3.29156,41.94635c0.99784,-6.17279 0.98247,-12.08245 -1.38795,-18.1921c-3.0648,-7.89931 -8.73853,-12.11925 -16.5527,-13.21708c-7.756,-1.08967 -14.13678,2.10317 -18.8434,8.54154c-5.13848,7.02923 -5.37895,14.89336 -3.71361,22.87825c1.32895,6.37191 5.24231,11.63511 11.03124,14.27584c12.61099,5.7526 24.90726,-0.35423 29.46643,-14.28644l-0.00001,0l0,-0.00001z" fill="#ffffff"/>
    <path stroke="#000000" id="svg_4" d="m383.31558,192.56209c-2.21943,3.75185 -4.80315,6.58892 -9.44561,5.70419c-1.05932,-0.20182 -2.15944,-0.57204 -3.06407,-1.14425c-9.66783,-6.11478 -19.98233,-10.38513 -31.4917,-7.19375c-7.14951,1.98249 -11.15907,5.55975 -10.01821,13.71781c0.64785,4.63259 4.31356,6.61196 8.0109,7.84386c5.22628,1.74131 10.67835,2.85111 16.08259,4.00224c9.92877,2.11483 19.8262,4.18156 26.9872,12.34325c5.33106,6.07601 6.59013,13.36438 5.80997,20.99886c-0.5378,5.26292 -2.49927,9.98306 -6.04919,14.34642c-5.60136,6.88501 -12.84269,10.8181 -21.05182,12.43793c-10.22134,2.01685 -20.68745,1.88982 -30.76203,-1.41873c-6.29439,-2.06718 -12.02179,-5.34239 -16.68201,-10.17269c-2.85614,-2.96042 -3.75344,-8.5618 -1.91332,-11.75956c2.05804,-3.57661 5.4038,-5.31639 9.3427,-4.51033c2.30946,0.47258 4.47074,2.14766 6.46498,3.60232c10.70227,7.80667 24.43323,9.67336 35.05924,4.06404c8.52191,-4.49867 8.74916,-11.73455 4.03873,-16.26936c-3.30342,-3.18026 -8.38366,-4.88369 -12.96497,-6.28066c-6.72699,-2.0513 -13.77112,-3.03588 -20.58283,-4.84191c-11.52461,-3.05557 -18.31026,-10.49874 -20.66115,-22.34131c-2.30389,-11.60585 4.8481,-24.45946 15.05994,-29.83126c9.89493,-5.20509 20.30806,-5.7007 31.21599,-4.34549c8.46683,1.05191 15.72598,4.36881 22.51771,9.14425c4.21756,2.96553 5.68829,7.29267 4.097,11.90413l-0.00005,0.00001l0.00001,-0.00001z" fill="#ffffff"/>
    <path stroke="#000000" id="svg_5" d="m829.42449,218.39432c3.5628,-10.67433 10.58118,-17.6432 20.63779,-21.64077c13.02353,-5.17684 24.72601,-2.20294 35.54291,5.93827c1.86328,-5.43751 5.14347,-8.29167 9.58064,-8.31949c5.15275,-0.03231 9.58232,4.07901 9.60042,9.2958c0.07283,20.99331 0.0638,41.98706 0.00478,62.98044c-0.01166,4.15126 -2.72026,8.00511 -5.90061,8.97807c-4.23008,1.29398 -8.70083,-0.31715 -11.28698,-4.11436c-0.70576,-1.03629 -1.29881,-2.14928 -1.96317,-3.25984c-10.79253,8.97971 -23.04363,11.0214 -36.11073,5.93761c-9.58891,-3.73059 -16.18051,-10.83276 -19.95001,-20.55316c-4.52133,-11.659 -4.43984,-23.2833 -0.15504,-35.24258m56.59529,11.05973c-1.64158,-6.61612 -4.96368,-12.03708 -11.16807,-15.28537c-7.82789,-4.0983 -14.76169,-3.43734 -21.62131,1.705c-9.84317,7.37894 -11.09944,23.76233 -5.68373,33.0837c4.60095,7.91889 11.35212,10.94034 20.04029,10.37596c7.51688,-0.48835 12.66547,-4.64625 16.09712,-11.16282c3.01403,-5.72364 3.92687,-11.7142 2.33572,-18.71647l-0.00001,-0.00001l-0.00001,0.00001z" fill="#ffffff"/>
    <path stroke="#000000" id="svg_6" d="m615.14243,276.59544c-15.34106,-0.089 -26.98226,-6.57974 -34.31368,-19.40336c-5.52757,-9.66848 -6.47215,-20.62249 -4.01725,-31.49497c2.50536,-11.09596 8.07283,-20.44361 18.15164,-26.41663c10.58821,-6.27483 21.50152,-7.74867 33.22686,-2.67829c9.84365,4.25669 16.72324,11.37306 20.97348,20.76916c2.53621,5.60694 4.60162,11.8431 2.75151,18.31579c-1.17723,4.11848 -4.42586,6.44713 -8.56845,6.4499c-15.77822,0.01061 -31.55643,0.00426 -47.75867,0.00426c0.00375,5.91543 3.21623,9.83877 7.32319,13.11424c7.29891,5.82103 22.58015,5.3249 29.14142,0.3464c3.43332,-2.60508 7.47624,-4.13224 11.83416,-1.01171c4.20766,3.01308 4.86987,8.12459 1.37282,11.83004c-4.8727,5.16309 -11.01622,8.04502 -17.83942,9.30966c-3.88555,0.7201 -7.92599,0.60467 -12.27762,0.86552m-18.88244,-53.59441c-0.29459,1.03476 -0.58916,2.06947 -0.99053,3.47925c6.57814,0 12.68525,0 18.79235,0c6.06426,0 12.12849,0 18.09479,0c1.16297,-6.45435 -7.0386,-14.35833 -15.74818,-15.49559c-6.73223,-0.879 -17.59551,1.67609 -20.14844,12.01634l0.00001,0z" fill="#ffffff"/>
    <path stroke="#000000" id="svg_7" d="m1117.46957,253.93793c5.03199,2.68909 6.02904,8.75827 2.13958,12.69276c-5.89254,5.96078 -13.25929,9.19811 -21.23864,9.73674c-7.21066,0.48672 -14.96998,0.35514 -21.74544,-1.8174c-13.3176,-4.27027 -22.12825,-13.76201 -25.08747,-27.84476c-3.28588,-15.63769 -0.38579,-29.92036 10.7607,-41.71675c8.01768,-8.48515 18.34212,-12.28647 29.9884,-11.29779c7.3763,0.62618 13.96957,3.69098 19.73891,8.54193c5.0274,4.22706 9.36563,9.09296 11.69054,15.12788c2.27168,5.8968 4.66283,12.09491 2.6846,18.70511c-1.12991,3.77567 -4.45894,6.07013 -8.52056,6.07253c-15.78073,0.00927 -31.56135,0.00377 -47.80337,0.00377c-0.07015,6.14011 3.44317,9.95814 7.69146,13.27357c7.53096,5.8772 22.75719,5.21269 29.81501,-0.34386c2.94613,-2.31937 6.19345,-2.56895 9.88627,-1.13369m-37.9041,-41.31266c-6.95191,4.16057 -9.90167,8.64596 -9.0305,13.65543c12.08091,0 24.15026,0 36.27178,0c0.31104,-4.55339 -2.17934,-7.43892 -5.1203,-10.10961c-6.38615,-5.79934 -13.67307,-6.39149 -22.12099,-3.54583l0.00001,0.00001z" fill="#ffffff"/>
    <path stroke="#000000" id="svg_8" d="m534.434,194.37482c5.47397,2.23067 11.34824,3.51605 15.57789,6.87344c10.81124,8.58172 17.12736,19.78273 15.76307,34.25174c-0.29237,3.10065 -4.75995,6.63327 -8.63958,6.63661c-14.86313,0.01261 -29.72629,0.00483 -44.58942,0.00463c-1.25822,0 -2.51644,0 -3.85684,0c3.96924,16.09315 17.85088,19.51434 30.48215,16.32265c3.68528,-0.93119 6.99851,-3.2466 10.60495,-4.60065c4.43379,-1.66466 7.71649,-0.46258 10.28159,3.31771c1.79962,2.65221 1.27917,6.81833 -1.534,9.78554c-4.59354,4.84502 -10.5758,7.55084 -16.90226,8.68238c-11.0317,1.97301 -22.16842,2.07835 -32.28477,-3.79464c-12.00554,-6.96968 -18.63287,-17.47427 -19.55098,-31.48547c-0.62989,-9.61262 0.51069,-18.83648 5.5101,-27.2606c6.06944,-10.22709 14.62195,-17.11729 26.69576,-18.65372c3.97035,-0.50523 8.05903,-0.08058 12.44233,-0.07963m10.94658,28.78356c-2.21169,-7.54219 -11.08255,-13.03213 -18.57902,-12.29918c-8.6544,0.84621 -15.1538,3.70702 -18.0735,15.44407c12.37859,0 24.71526,0 37.04352,0c-0.12524,-0.80234 -0.25788,-1.65209 -0.391,-3.14489z" fill="#ffffff"/>
    <path stroke="#000000" id="svg_9" d="m788.28455,214.50561c-5.67395,-3.98981 -11.5152,-3.77308 -17.11281,-1.0186c-5.81697,2.8624 -8.78667,7.9945 -8.83627,14.51064c-0.09739,12.77854 -0.01796,25.55836 -0.03598,38.33767c-0.00842,5.95998 -3.68969,9.47593 -9.84823,9.47741c-5.60712,0.00133 -8.93468,-3.50808 -8.93654,-9.50495c-0.00951,-30.51384 -0.01191,-61.02768 0.00272,-91.54151c0.00286,-5.96264 3.36107,-9.37369 9.0999,-9.36121c5.92355,0.01286 9.66743,3.5807 9.6845,9.33073c0.02972,10.03123 0.00826,20.06261 0.00826,29.88212c4.47601,-2.79343 8.71741,-6.25112 13.55688,-8.28781c9.38197,-3.94843 19.06814,-3.26792 26.92457,3.23552c6.05647,5.01334 8.65404,12.7211 8.77424,20.66986c0.23658,15.64452 0.07795,31.29519 0.06414,46.9433c-0.00468,5.2903 -3.53937,8.63458 -9.0543,8.63406c-5.62073,-0.00059 -8.9264,-3.06991 -8.94137,-8.42822c-0.03131,-11.21439 0.2231,-22.43604 -0.11691,-33.6402c-0.14796,-4.87642 -1.30975,-9.75221 -2.35177,-14.55441c-0.34817,-1.60454 -1.75481,-2.97934 -2.88104,-4.68439l0.00001,0l0,-0.00001z" fill="#ffffff"/>
    <path stroke="#000000" id="svg_10" d="m730.98241,263.79559c-2.04237,7.37559 -8.32967,9.49533 -14.11654,11.04066c-9.30387,2.4845 -18.92188,2.91224 -28.436,0.2174c-7.6927,-2.17896 -13.77004,-6.90808 -18.32549,-13.08063c-5.94229,-8.05176 -8.28498,-17.63829 -7.95346,-27.57603c0.52921,-15.86107 6.66429,-28.86997 21.23429,-36.55764c8.32581,-4.393 17.40171,-5.62724 26.64393,-3.41311c4.83189,1.15754 9.64756,2.66323 14.19775,4.6398c4.89296,2.12553 7.30605,8.13272 5.87614,12.906c-1.27009,4.23986 -6.90742,6.38136 -11.40063,4.41164c-3.85423,-1.68971 -7.62287,-3.83416 -11.66297,-4.79197c-12.29459,-2.91458 -22.767,5.82075 -25.31295,16.88621c-1.86453,8.10399 -0.46474,15.70149 4.49054,22.70941c3.32168,4.69758 7.89806,7.34333 13.10745,7.9893c6.13837,0.76125 12.57346,0.93215 17.9378,-3.53594c2.64608,-2.20401 5.78529,-2.64379 8.86423,-0.98061c3.42105,1.84805 5.41762,4.67143 4.85592,9.1355l0,0.00001l-0.00001,0z" fill="#ffffff"/>
    <path stroke="#000000" id="svg_11" d="m1017.5733,191.24488c-0.00038,-5.73931 -0.01329,-11.08712 0.00291,-16.43486c0.0129,-4.26204 2.66926,-7.99006 6.55001,-9.25313c3.8085,-1.23959 8.51999,0.02065 10.62846,3.52017c1.29068,2.14216 2.19081,4.89253 2.20324,7.37516c0.14801,29.47727 0.26883,58.95715 -0.00536,88.4326c-0.0865,9.30345 -6.97957,13.87515 -15.16797,9.35764c-2.92696,-1.6149 -4.2401,-4.40341 -4.23432,-7.86756c0.04154,-24.91274 0.0227,-49.82566 0.02303,-75.13002z" fill="#ffffff"/>
   </g>
   <g id="svg_29">
    <path stroke="#ffffff" id="svg_12" d="m193.77958,315.4107c0.00007,-60.68859 -0.00207,-120.88806 0.00604,-181.08758c0.00038,-3.26223 -0.83227,-7.45168 4.06118,-7.59972c5.28631,-0.15992 5.53094,3.9365 5.52822,8.03569c-0.03946,59.31419 -0.02699,118.62837 -0.02699,177.9426c0,0.8853 0.00389,1.77059 -0.00046,2.65588c-0.01688,3.44914 -1.7118,5.62835 -5.16515,5.73074c-3.30134,0.09785 -4.56908,-2.06693 -4.40284,-5.67759l0,-0.00001l0,-0.00001z" fill="#ffffff"/>
    <path stroke="#ffffff" id="svg_13" d="m171.45329,282.88303c-0.00013,-50.12681 0.00435,-99.72201 -0.01071,-149.31724c-0.00098,-3.25078 -0.29765,-7.03681 4.29162,-6.83052c3.8671,0.17374 5.33179,3.05884 5.32803,6.96628c-0.05743,60.04557 -0.04035,120.09125 -0.04055,180.13688c0,0.70853 0.0543,1.42206 -0.01032,2.12468c-0.29264,3.17909 -2.04753,5.1076 -5.23251,5.13699c-3.36746,0.03101 -4.36306,-2.19716 -4.34729,-5.27158c0.05555,-10.80433 0.02175,-21.60926 0.02175,-32.94549l-0.00001,-0.00001l-0.00001,0.00001z" fill="#ffffff"/>
    <path stroke="#ffffff" id="svg_14" d="m238.43351,287.53584c-0.00085,-41.36367 0.00897,-82.25469 -0.01849,-123.14568c-0.00234,-3.53309 -0.14069,-7.09518 4.85253,-6.9288c4.75752,0.15855 4.73396,3.71029 4.73403,7.14443c0.00085,39.65178 0.07034,79.304 -0.16528,118.95438c-0.01408,2.36787 -2.15271,5.03928 -3.99605,6.87231c-0.50204,0.49927 -3.53466,-1.54631 -5.40675,-2.89665l0.00001,0.00001z" fill="#ffffff"/>
    <path stroke="#ffffff" id="svg_15" d="m91.71656,241.42004c-0.00013,14.32623 0.10279,28.12246 -0.10524,41.91396c-0.03355,2.22362 -0.94908,4.89529 -2.41468,6.46624c-0.90774,0.97302 -3.90406,0.8387 -5.4294,0.09993c-1.02333,-0.49563 -1.55154,-2.92036 -1.55466,-4.48343c-0.08098,-40.49957 -0.05145,-80.99933 -0.08598,-121.49903c-0.00295,-3.45668 0.23305,-6.52116 4.79104,-6.48326c4.48278,0.03724 4.78172,3.24537 4.78484,6.52223c0.0244,25.64394 0.01369,51.28784 0.01408,77.46337l0,-0.00001z" fill="#ffffff"/>
    <path stroke="#ffffff" id="svg_16" d="m149.12641,249.90697c0,-20.70882 0.01037,-40.88917 -0.01051,-61.0695c-0.00337,-3.24136 -0.30874,-6.97908 4.28084,-6.83622c4.15327,0.12922 5.19799,3.69677 5.24368,7.11762c0.14671,10.97334 0.05957,21.94977 0.05951,32.92503c-0.00007,12.39142 0.00065,24.78282 -0.00786,37.17422c-0.00233,3.31652 -0.33794,6.93753 -4.68277,6.4234c-1.78331,-0.21101 -4.2443,-2.75833 -4.66758,-4.63332c-0.76044,-3.36878 -0.21504,-7.03236 -0.2153,-11.10124l-0.00001,0.00001z" fill="#ffffff"/>
    <path stroke="#ffffff" id="svg_17" d="m260.75838,253.05626c0.00007,-21.2407 0.00013,-41.96032 0.00026,-62.67992c0,-1.06254 -0.38558,-2.35196 0.07844,-3.14245c1.11557,-1.90039 2.62959,-3.5669 3.98286,-5.32781c1.52264,1.19796 3.4193,2.14299 4.45288,3.67163c0.8716,1.28893 1.00884,3.25481 1.01346,4.92229c0.06073,22.13615 0.04061,44.27258 0.04055,66.40891c0,0.70837 0.11064,1.43796 -0.01992,2.12147c-0.59368,3.10909 -0.5816,7.04011 -5.15783,6.72508c-4.03381,-0.27766 -4.82474,-3.29306 -4.42457,-6.8692c0.19571,-1.749 0.03387,-3.53802 0.03387,-5.82999l0,-0.00001z" fill="#ffffff"/>
    <path stroke="#ffffff" id="svg_18" d="m220.44471,184.01114c4.32977,-0.14706 5.14698,2.73641 5.16165,5.51265c0.1205,22.79149 0.11621,45.58415 0.00824,68.37576c-0.01415,2.9907 -0.7195,6.04283 -4.9298,5.85376c-4.06847,-0.18269 -4.61853,-2.78593 -4.60971,-6.1434c0.0593,-22.61533 0.06223,-45.23094 -0.00707,-67.84619c-0.00915,-2.98787 0.68478,-5.15105 4.37668,-5.75257l0,-0.00001l0.00001,0z" fill="#ffffff"/>
    <path stroke="#ffffff" id="svg_19" d="m110.89836,261.6131c-4.76472,1.12571 -6.37827,-0.31764 -6.40474,-5.64232c-0.05969,-12.02622 -0.01888,-24.05287 -0.01888,-36.07938c0,-9.01987 0.04587,-18.04009 -0.02329,-27.0594c-0.02603,-3.38473 0.08591,-6.5687 4.5838,-6.67379c4.86472,-0.11368 4.96121,3.54859 4.97329,6.88023c0.0693,19.10066 0.06592,38.20176 0.00765,57.30251c-0.012,3.91402 1.06016,8.17114 -3.11782,11.27215l-0.00001,0z" fill="#ffffff"/>
    <path stroke="#ffffff" id="svg_20" d="m65.96183,194.64985c1.44263,2.08585 3.26482,4.15126 3.29808,6.24504c0.24465,15.40904 0.19824,30.82429 0.07398,46.23621c-0.02404,2.97847 -0.60211,5.86528 -4.82066,6.06482c-3.19776,0.15125 -4.62589,-1.29828 -4.64042,-4.0769c-0.08809,-16.82975 -0.12437,-33.66085 0.02536,-50.4897c0.02946,-3.30973 2.60951,-4.24197 6.06365,-3.97949l0,0.00001l0.00001,0.00001z" fill="#ffffff"/>
    <path stroke="#ffffff" id="svg_21" d="m136.36247,241.81631c-0.3506,1.23898 -0.49129,2.27289 -1.08041,2.73482c-1.48826,1.16687 -3.90903,3.28683 -4.64033,2.84531c-1.69381,-1.02263 -3.62611,-3.30646 -3.67575,-5.12752c-0.32173,-11.81298 -0.11492,-23.63944 -0.1961,-35.46062c-0.02381,-3.47066 1.07536,-6.94574 4.59368,-6.47331c1.9293,0.25911 4.67512,4.22498 4.77991,6.61889c0.50133,11.44697 0.22478,22.92798 0.219,34.86243z" fill="#ffffff"/>
   </g>
  </g>
 </g>

</svg>